<?xml version="1.0" encoding="UTF-8" standalone="no"?>
<!DOCTYPE svg PUBLIC "-//W3C//DTD SVG 1.1//EN" "http://www.w3.org/Graphics/SVG/1.1/DTD/svg11.dtd">
<svg width="100%" height="100%" viewBox="0 0 3334 3334" version="1.1" xmlns="http://www.w3.org/2000/svg" xmlns:xlink="http://www.w3.org/1999/xlink" xml:space="preserve" xmlns:serif="http://www.serif.com/" style="fill-rule:evenodd;clip-rule:evenodd;stroke-linejoin:round;stroke-miterlimit:2;">
    <g transform="matrix(1.19762,0,0,1.4951,-254.569,-578.882)">
        <path d="M2691.43,1063.01L2691.43,1940.87C2691.43,2104.11 2531.77,2233.49 2340.18,2233.49L868.242,2233.49C676.653,2233.49 516.985,2104.11 516.985,1940.87L516.985,1063.01C516.985,899.77 676.653,770.382 868.242,770.382L2340.18,770.382C2531.77,770.382 2691.43,899.77 2691.43,1063.01ZM2430.5,1063.01C2430.5,1018.55 2392.36,979.399 2340.18,979.399L868.242,979.399C816.06,979.399 777.919,1018.55 777.919,1063.01L777.919,1940.87C777.919,1985.33 816.06,2024.48 868.242,2024.48L2340.18,2024.48C2392.36,2024.48 2430.5,1985.33 2430.5,1940.87L2430.5,1063.01Z"/>
    </g>
    <g transform="matrix(1.17038,0,0,1,-215.069,257.881)">
        <rect x="628.772" y="1044.2" width="1958.05" height="312.5"/>
    </g>
    <g transform="matrix(1,0,0,1.00869,88.5498,-1160.32)">
        <path d="M901.034,1666.67C901.034,1581.17 971.047,1511.76 1057.28,1511.76C1143.52,1511.76 1213.53,1581.17 1213.53,1666.67L1213.53,2079.74C1213.53,2165.24 1143.52,2234.65 1057.28,2234.65C971.047,2234.65 901.034,2165.24 901.034,2079.74L901.034,1666.67Z"/>
    </g>
    <g transform="matrix(1,0,0,1.00869,1130.22,-1160.32)">
        <path d="M901.034,1666.67C901.034,1581.17 971.047,1511.76 1057.28,1511.76C1143.52,1511.76 1213.53,1581.17 1213.53,1666.67L1213.53,2079.74C1213.53,2165.24 1143.52,2234.65 1057.28,2234.65C971.047,2234.65 901.034,2165.24 901.034,2079.74L901.034,1666.67Z"/>
    </g>
</svg>
