<?xml version="1.0" encoding="UTF-8"?>
<svg xmlns="http://www.w3.org/2000/svg" xmlns:xlink="http://www.w3.org/1999/xlink" width="14px" height="24px" viewBox="0 0 24 24" version="1.1">
<g id="surface1">
<path style=" stroke:none;fill-rule:nonzero;fill:rgb(5.882353%,5.882353%,5.882353%);fill-opacity:1;" d="M 20.746094 3.328125 C 20.355469 2.9375 19.722656 2.9375 19.332031 3.328125 L 12.035156 10.621094 L 4.742188 3.328125 C 4.351562 2.9375 3.71875 2.9375 3.328125 3.328125 C 2.9375 3.71875 2.9375 4.351562 3.328125 4.742188 L 10.621094 12.035156 L 3.328125 19.332031 C 2.9375 19.722656 2.9375 20.355469 3.328125 20.746094 C 3.71875 21.136719 4.351562 21.136719 4.742188 20.746094 L 12.035156 13.453125 L 19.332031 20.746094 C 19.722656 21.136719 20.355469 21.136719 20.746094 20.746094 C 21.136719 20.355469 21.136719 19.722656 20.746094 19.332031 L 13.453125 12.035156 L 20.746094 4.742188 C 21.136719 4.351562 21.136719 3.71875 20.746094 3.328125 Z M 20.746094 3.328125 "/>
</g>
</svg>
