<?xml version="1.0" encoding="UTF-8" standalone="no"?>
<!DOCTYPE svg PUBLIC "-//W3C//DTD SVG 1.1//EN" "http://www.w3.org/Graphics/SVG/1.1/DTD/svg11.dtd">
<svg width="100%" height="100%" viewBox="0 0 3334 3334" version="1.1" xmlns="http://www.w3.org/2000/svg" xmlns:xlink="http://www.w3.org/1999/xlink" xml:space="preserve" xmlns:serif="http://www.serif.com/" style="fill-rule:evenodd;clip-rule:evenodd;stroke-linecap:round;stroke-miterlimit:1.5;">
    <g transform="matrix(1.28679,0,0,1.28679,145.793,-2381.57)">
        <circle cx="1181.91" cy="2093.64" r="242.853"/>
    </g>
    <g transform="matrix(1.28679,0,0,1.28679,145.793,-2381.57)">
        <circle cx="1181.91" cy="2093.64" r="242.853" style="fill:none;"/>
    </g>
    <g transform="matrix(1.28679,0,0,1.28679,145.793,-1027.4)">
        <circle cx="1181.91" cy="2093.64" r="242.853"/>
    </g>
    <g transform="matrix(1.28679,0,0,1.28679,145.793,-1027.4)">
        <circle cx="1181.91" cy="2093.64" r="242.853" style="fill:none;"/>
    </g>
    <g transform="matrix(1.28679,0,0,1.28679,1499.96,-1027.4)">
        <circle cx="1181.91" cy="2093.64" r="242.853"/>
    </g>
    <g transform="matrix(1.28679,0,0,1.28679,1499.96,-1027.4)">
        <circle cx="1181.91" cy="2093.64" r="242.853" style="fill:none;"/>
    </g>
    <g transform="matrix(1.28679,0,0,1.28679,145.793,326.767)">
        <circle cx="1181.91" cy="2093.64" r="242.853"/>
    </g>
    <g transform="matrix(1.28679,0,0,1.28679,145.793,326.767)">
        <circle cx="1181.91" cy="2093.64" r="242.853" style="fill:none;"/>
    </g>
    <g transform="matrix(1.28679,0,0,1.28679,-1208.37,-1027.4)">
        <circle cx="1181.91" cy="2093.64" r="242.853"/>
    </g>
    <g transform="matrix(1.28679,0,0,1.28679,-1208.37,-1027.4)">
        <circle cx="1181.91" cy="2093.64" r="242.853" style="fill:none;"/>
    </g>
    <g transform="matrix(0.815328,0,0,1,1486.92,702.561)">
        <path d="M220.464,1120.36C114.695,1120.36 28.824,1050.34 28.824,964.106C28.824,877.869 114.695,807.856 220.464,807.856L859.266,807.856C965.036,807.856 1050.91,877.869 1050.91,964.106C1050.91,1050.34 965.036,1120.36 859.266,1120.36L220.464,1120.36Z"/>
    </g>
    <g transform="matrix(0.815328,0,0,1,132.749,702.561)">
        <path d="M220.464,1120.36C114.695,1120.36 28.824,1050.34 28.824,964.106C28.824,877.869 114.695,807.856 220.464,807.856L859.266,807.856C965.036,807.856 1050.91,877.869 1050.91,964.106C1050.91,1050.34 965.036,1120.36 859.266,1120.36L220.464,1120.36Z"/>
    </g>
    <g transform="matrix(4.99245e-17,-0.815328,1,6.12323e-17,702.561,1846.42)">
        <path d="M220.464,964.106L859.266,964.106" style="fill:none;stroke:black;stroke-width:342.52px;"/>
    </g>
    <g transform="matrix(0.715896,0.715896,-1.26749,1.26749,2300.26,-768.531)">
        <path d="M312.5,763.558C227.322,763.558 158.168,724.499 158.168,676.389C158.168,628.279 227.322,589.22 312.5,589.22L1380.89,589.22C1466.07,589.22 1535.22,628.279 1535.22,676.389C1535.22,724.499 1466.07,763.558 1380.89,763.558L312.5,763.558Z"/>
    </g>
    <g transform="matrix(0.715896,-0.715896,1.26749,1.26749,585.635,2387.24)">
        <path d="M312.5,763.558C227.322,763.558 158.168,724.499 158.168,676.389C158.168,628.279 227.322,589.22 312.5,589.22L1380.89,589.22C1466.07,589.22 1535.22,628.279 1535.22,676.389C1535.22,724.499 1466.07,763.558 1380.89,763.558L312.5,763.558Z"/>
    </g>
    <g transform="matrix(0.715896,0.715896,-1.26749,1.26749,946.097,585.635)">
        <path d="M312.5,763.558C227.322,763.558 158.168,724.499 158.168,676.389C158.168,628.279 227.322,589.22 312.5,589.22L1380.89,589.22C1466.07,589.22 1535.22,628.279 1535.22,676.389C1535.22,724.499 1466.07,763.558 1380.89,763.558L312.5,763.558Z"/>
    </g>
</svg>
