<?xml version="1.0" encoding="UTF-8"?>
<svg xmlns="http://www.w3.org/2000/svg" xmlns:xlink="http://www.w3.org/1999/xlink" width="24px" height="24px" viewBox="0 0 24 24" version="1.1">
<g id="surface1">
<path style=" stroke:none;fill-rule:evenodd;fill:rgb(0%,0%,0%);fill-opacity:1;" d="M 9.722656 4.097656 C 9.722656 4.097656 7.785156 4.097656 5.988281 4.101562 C 3.714844 4.105469 1.871094 5.953125 1.871094 8.226562 L 1.871094 18 C 1.871094 19.09375 2.304688 20.144531 3.082031 20.917969 C 3.851562 21.691406 4.902344 22.125 5.996094 22.125 L 15.75 22.125 C 18.027344 22.125 19.875 20.277344 19.875 18 C 19.875 16.195312 19.875 14.246094 19.875 14.246094 C 19.875 13.625 19.371094 13.121094 18.75 13.121094 C 18.128906 13.121094 17.625 13.625 17.625 14.246094 L 17.625 18 C 17.625 19.035156 16.785156 19.875 15.75 19.875 L 5.996094 19.875 C 5.5 19.875 5.023438 19.679688 4.671875 19.324219 C 4.320312 18.972656 4.121094 18.496094 4.121094 18 L 4.121094 8.226562 C 4.121094 7.191406 4.960938 6.355469 5.992188 6.351562 C 7.789062 6.347656 9.726562 6.347656 9.726562 6.347656 C 10.347656 6.34375 10.851562 5.839844 10.851562 5.21875 C 10.851562 4.597656 10.34375 4.09375 9.722656 4.097656 Z M 9.722656 4.097656 "/>
<path style=" stroke:none;fill-rule:evenodd;fill:rgb(0%,0%,0%);fill-opacity:1;" d="M 15.035156 4.808594 L 9.902344 9.941406 C 9.796875 10.046875 9.726562 10.175781 9.699219 10.320312 L 8.886719 14.183594 C 8.835938 14.429688 8.910156 14.6875 9.085938 14.863281 C 9.265625 15.042969 9.519531 15.121094 9.769531 15.070312 L 13.664062 14.292969 C 13.808594 14.265625 13.941406 14.191406 14.046875 14.089844 L 19.179688 8.953125 Z M 16.097656 3.746094 L 20.242188 7.894531 L 21.074219 7.058594 C 22.21875 5.914062 22.21875 4.058594 21.074219 2.914062 C 19.929688 1.769531 18.074219 1.769531 16.929688 2.914062 Z M 16.097656 3.746094 "/>
</g>
</svg>
