<?xml version="1.0" encoding="UTF-8" standalone="no"?>
<!DOCTYPE svg PUBLIC "-//W3C//DTD SVG 1.1//EN" "http://www.w3.org/Graphics/SVG/1.1/DTD/svg11.dtd">
<svg width="100%" height="100%" viewBox="0 0 3334 3334" version="1.1" xmlns="http://www.w3.org/2000/svg" xmlns:xlink="http://www.w3.org/1999/xlink" xml:space="preserve" xmlns:serif="http://www.serif.com/" style="fill-rule:evenodd;clip-rule:evenodd;stroke-linejoin:round;stroke-miterlimit:2;">
    <g transform="matrix(1.23147,0,0,0.698533,-693.376,-402.998)">
        <path d="M2677.73,1397.09C2677.73,1767.45 2507.17,2068.14 2297.09,2068.14L1028.28,2068.14C818.195,2068.14 647.634,1767.45 647.634,1397.09C647.634,1026.73 818.195,726.043 1028.28,726.043L2297.09,726.043C2507.17,726.043 2677.73,1026.73 2677.73,1397.09ZM2423.97,1397.09C2423.97,1273.64 2367.11,1173.41 2297.09,1173.41L1028.28,1173.41C958.25,1173.41 901.396,1273.64 901.396,1397.09C901.396,1520.55 958.25,1620.78 1028.28,1620.78L2297.09,1620.78C2367.11,1620.78 2423.97,1520.55 2423.97,1397.09Z"/>
    </g>
    <g transform="matrix(1.02623,0,0,0.698533,481.215,690.752)">
        <path d="M2677.73,1397.09C2677.73,1767.45 2473.06,2068.14 2220.96,2068.14L1104.4,2068.14C852.307,2068.14 647.634,1767.45 647.634,1397.09C647.634,1026.73 852.307,726.043 1104.4,726.043L2220.96,726.043C2473.06,726.043 2677.73,1026.73 2677.73,1397.09ZM2373.21,1397.09C2373.21,1273.64 2304.99,1173.41 2220.96,1173.41L1104.4,1173.41C1020.37,1173.41 952.148,1273.64 952.148,1397.09C952.148,1520.55 1020.37,1620.78 1104.4,1620.78L2220.96,1620.78C2304.99,1620.78 2373.21,1520.55 2373.21,1397.09Z"/>
    </g>
    <g transform="matrix(0.82098,0,0,0.698533,-115.028,1784.5)">
        <path d="M2677.73,1397.09C2677.73,1767.45 2421.89,2068.14 2106.76,2068.14L1218.6,2068.14C903.475,2068.14 647.634,1767.45 647.634,1397.09C647.634,1026.73 903.475,726.043 1218.6,726.043L2106.76,726.043C2421.89,726.043 2677.73,1026.73 2677.73,1397.09ZM2297.09,1397.09C2297.09,1273.64 2211.81,1173.41 2106.76,1173.41L1218.6,1173.41C1113.56,1173.41 1028.28,1273.64 1028.28,1397.09C1028.28,1520.55 1113.56,1620.78 1218.6,1620.78L2106.76,1620.78C2211.81,1620.78 2297.09,1520.55 2297.09,1397.09Z"/>
    </g>
</svg>
