<?xml version="1.0" encoding="UTF-8" standalone="no"?>
<!DOCTYPE svg PUBLIC "-//W3C//DTD SVG 1.1//EN" "http://www.w3.org/Graphics/SVG/1.1/DTD/svg11.dtd">
<svg width="100%" height="100%" viewBox="0 0 3334 3334" version="1.1" xmlns="http://www.w3.org/2000/svg" xmlns:xlink="http://www.w3.org/1999/xlink" xml:space="preserve" xmlns:serif="http://www.serif.com/" style="fill-rule:evenodd;clip-rule:evenodd;stroke-linecap:round;stroke-linejoin:round;stroke-miterlimit:1.5;">
    <g transform="matrix(1.20819,0,0,1.2218,-371.334,-343.636)">
        <path d="M2893.87,963.311L2893.87,2327.42C2893.87,2468.59 2777.97,2583.2 2635.22,2583.2L738.435,2583.2C595.681,2583.2 479.783,2468.59 479.783,2327.42L479.783,963.311C479.783,822.148 595.681,707.54 738.435,707.54L2635.22,707.54C2777.97,707.54 2893.87,822.148 2893.87,963.311Z" style="fill:none;stroke:black;stroke-width:257.2px;"/>
    </g>
    <g transform="matrix(1,0,0,1.03164,-192.852,36.1536)">
        <path d="M1373.39,469.815L1373.39,2691.2" style="fill:none;stroke:black;stroke-width:307.6px;stroke-linecap:butt;"/>
    </g>
    <g transform="matrix(1,0,0,1.03164,779.356,36.1536)">
        <path d="M1373.39,469.815L1373.39,2691.2" style="fill:none;stroke:black;stroke-width:307.6px;stroke-linecap:butt;"/>
    </g>
</svg>
