<?xml version="1.0" encoding="UTF-8" standalone="no"?>
<!DOCTYPE svg PUBLIC "-//W3C//DTD SVG 1.1//EN" "http://www.w3.org/Graphics/SVG/1.1/DTD/svg11.dtd">
<svg width="100%" height="100%" viewBox="0 0 3334 3334" version="1.1" xmlns="http://www.w3.org/2000/svg" xmlns:xlink="http://www.w3.org/1999/xlink" xml:space="preserve" xmlns:serif="http://www.serif.com/" style="fill-rule:evenodd;clip-rule:evenodd;stroke-linejoin:round;stroke-miterlimit:2;">
    <g transform="matrix(1.39327,0,0,1.39327,-1024.16,-942.718)">
        <path d="M1931.31,826.154C2509,826.154 2978.01,1295.16 2978.01,1872.86C2978.01,2450.55 2509,2919.56 1931.31,2919.56C1353.62,2919.56 884.605,2450.55 884.605,1872.86C884.605,1295.16 1353.62,826.154 1931.31,826.154ZM1931.31,1050.45C1477.41,1050.45 1108.9,1418.96 1108.9,1872.86C1108.9,2326.76 1477.41,2695.26 1931.31,2695.26C2385.21,2695.26 2753.72,2326.76 2753.72,1872.86C2753.72,1418.96 2385.21,1050.45 1931.31,1050.45Z"/>
    </g>
    <g transform="matrix(0.796152,0,0,0.796152,129.053,175.59)">
        <path d="M1931.31,826.154C2509,826.154 2978.01,1295.16 2978.01,1872.86C2978.01,2450.55 2509,2919.56 1931.31,2919.56C1353.62,2919.56 884.605,2450.55 884.605,1872.86C884.605,1295.16 1353.62,826.154 1931.31,826.154ZM1931.31,1218.67C1570.25,1218.67 1277.12,1511.8 1277.12,1872.86C1277.12,2233.91 1570.25,2527.04 1931.31,2527.04C2292.36,2527.04 2585.49,2233.91 2585.49,1872.86C2585.49,1511.8 2292.36,1218.67 1931.31,1218.67Z"/>
    </g>
</svg>
