<?xml version="1.0" encoding="UTF-8"?>
<svg xmlns="http://www.w3.org/2000/svg" xmlns:xlink="http://www.w3.org/1999/xlink" width="24px" height="24px" viewBox="0 0 24 24" version="1.1">
<g id="surface1">
<path style=" stroke:none;fill-rule:nonzero;fill:rgb(0%,0%,0%);fill-opacity:1;" d="M 19.335938 15.261719 C 18.546875 15.261719 17.804688 15.472656 17.164062 15.84375 L 9.027344 11.878906 C 9.03125 11.832031 9.03125 11.785156 9.03125 11.738281 C 9.03125 11.691406 9.03125 11.644531 9.027344 11.597656 L 16.707031 7.859375 C 17.460938 8.429688 18.378906 8.738281 19.335938 8.738281 C 21.746094 8.738281 23.707031 6.777344 23.707031 4.371094 C 23.707031 1.960938 21.746094 0 19.335938 0 C 17.1875 0 15.367188 1.578125 15.023438 3.664062 L 6.539062 7.792969 C 5.972656 7.523438 5.335938 7.371094 4.664062 7.371094 C 2.253906 7.371094 0.292969 9.332031 0.292969 11.738281 C 0.292969 14.148438 2.253906 16.109375 4.664062 16.109375 C 5.335938 16.109375 5.972656 15.957031 6.539062 15.683594 L 14.972656 19.789062 C 15.054688 22.125 16.980469 24 19.335938 24 C 21.746094 24 23.707031 22.039062 23.707031 19.628906 C 23.707031 17.222656 21.746094 15.261719 19.335938 15.261719 Z M 16.34375 4.160156 C 16.453125 2.597656 17.765625 1.371094 19.335938 1.371094 C 20.992188 1.371094 22.335938 2.714844 22.335938 4.371094 C 22.335938 6.023438 20.992188 7.371094 19.335938 7.371094 C 18.566406 7.371094 17.835938 7.078125 17.277344 6.550781 C 16.671875 5.976562 16.335938 5.203125 16.335938 4.371094 C 16.335938 4.300781 16.339844 4.230469 16.34375 4.160156 Z M 15.042969 5.175781 C 15.15625 5.761719 15.386719 6.324219 15.71875 6.816406 L 8.753906 10.210938 C 8.542969 9.640625 8.214844 9.132812 7.800781 8.703125 Z M 1.664062 11.738281 C 1.664062 10.085938 3.007812 8.738281 4.664062 8.738281 C 6.316406 8.738281 7.664062 10.085938 7.664062 11.738281 C 7.664062 13.394531 6.316406 14.738281 4.664062 14.738281 C 3.007812 14.738281 1.664062 13.394531 1.664062 11.738281 Z M 15.15625 18.359375 L 7.800781 14.777344 C 8.214844 14.347656 8.542969 13.835938 8.753906 13.269531 L 16.007812 16.804688 C 15.625 17.253906 15.332031 17.78125 15.15625 18.359375 Z M 19.335938 22.628906 C 17.683594 22.628906 16.335938 21.285156 16.335938 19.628906 C 16.335938 17.976562 17.683594 16.628906 19.335938 16.628906 C 20.992188 16.628906 22.335938 17.976562 22.335938 19.628906 C 22.335938 21.285156 20.992188 22.628906 19.335938 22.628906 Z M 19.335938 22.628906 "/>
</g>
</svg>
