<?xml version="1.0" encoding="UTF-8" standalone="no"?>
<!DOCTYPE svg PUBLIC "-//W3C//DTD SVG 1.1//EN" "http://www.w3.org/Graphics/SVG/1.1/DTD/svg11.dtd">
<svg width="100%" height="100%" viewBox="0 0 3334 3334" version="1.1" xmlns="http://www.w3.org/2000/svg" xmlns:xlink="http://www.w3.org/1999/xlink" xml:space="preserve" xmlns:serif="http://www.serif.com/" style="fill-rule:evenodd;clip-rule:evenodd;stroke-linejoin:round;stroke-miterlimit:2;">
    <g transform="matrix(6.12323e-17,-1,0.51572,3.15787e-17,1190.12,3769.23)">
        <path d="M1217.14,469.815C1217.14,302.599 1287.16,166.841 1373.39,166.841C1459.63,166.841 1529.64,302.599 1529.64,469.815L1529.64,2691.2C1529.64,2858.42 1459.63,2994.17 1373.39,2994.17C1287.16,2994.17 1217.14,2858.42 1217.14,2691.2L1217.14,469.815Z"/>
    </g>
    <g transform="matrix(2.67245,0,0,2.67245,-463.146,-5359.12)">
        <circle cx="514.399" cy="2901.82" r="58.467"/>
    </g>
    <g transform="matrix(2.67245,0,0,2.67245,-463.146,-6088.28)">
        <circle cx="514.399" cy="2901.82" r="58.467"/>
    </g>
    <g transform="matrix(2.67245,0,0,2.67245,-463.146,-6817.45)">
        <circle cx="514.399" cy="2901.82" r="58.467"/>
    </g>
    <g transform="matrix(6.12323e-17,-1,0.51572,3.15787e-17,1190.12,2310.89)">
        <path d="M1217.14,469.815C1217.14,302.599 1287.16,166.841 1373.39,166.841C1459.63,166.841 1529.64,302.599 1529.64,469.815L1529.64,2691.2C1529.64,2858.42 1459.63,2994.17 1373.39,2994.17C1287.16,2994.17 1217.14,2858.42 1217.14,2691.2L1217.14,469.815Z"/>
    </g>
    <g transform="matrix(6.12323e-17,-1,0.51572,3.15787e-17,1189.9,3040.06)">
        <path d="M1217.14,469.815C1217.14,302.599 1287.16,166.841 1373.39,166.841C1459.63,166.841 1529.64,302.599 1529.64,469.815L1529.64,2691.2C1529.64,2858.42 1459.63,2994.17 1373.39,2994.17C1287.16,2994.17 1217.14,2858.42 1217.14,2691.2L1217.14,469.815Z"/>
    </g>
</svg>
