<?xml version="1.0" standalone="no"?>
<!DOCTYPE svg PUBLIC "-//W3C//DTD SVG 20010904//EN"
 "http://www.w3.org/TR/2001/REC-SVG-20010904/DTD/svg10.dtd">
<svg version="1.0" xmlns="http://www.w3.org/2000/svg"
 width="200.000000pt" height="200.000000pt" viewBox="0 0 200.000000 200.000000"
 preserveAspectRatio="xMidYMid meet">

<g transform="translate(0.000000,200.000000) scale(0.100000,-0.100000)"
fill="#000000" stroke="none">
<path d="M17 1562 c-21 -23 -22 -51 -1 -80 l15 -22 863 0 c823 0 864 1 879 18
21 23 22 66 1 86 -14 14 -107 16 -878 16 -823 0 -864 -1 -879 -18z"/>
<path d="M17 1352 c-23 -25 -21 -58 3 -82 20 -20 33 -20 843 -20 785 0 825 1
840 18 20 22 22 73 5 90 -9 9 -210 12 -843 12 -793 0 -833 -1 -848 -18z"/>
<path d="M35 1158 c-41 -23 -47 -66 -15 -98 20 -20 33 -20 980 -20 947 0 960
0 980 20 33 33 26 76 -17 99 -31 16 -1899 15 -1928 -1z"/>
<path d="M20 940 c-33 -33 -26 -76 17 -99 31 -16 1205 -16 1236 0 43 23 50 66
17 99 -20 20 -33 20 -635 20 -602 0 -615 0 -635 -20z"/>
<path d="M20 730 c-25 -25 -26 -62 -2 -83 17 -16 95 -17 915 -17 986 0 927 -4
927 60 0 63 46 60 -932 60 -875 0 -888 0 -908 -20z"/>
<path d="M16 518 c-21 -30 -20 -61 2 -81 17 -15 71 -17 569 -17 520 0 551 1
566 18 22 24 21 65 -1 85 -17 15 -71 17 -570 17 l-551 0 -15 -22z"/>
</g>
</svg>
