<?xml version="1.0" encoding="UTF-8" standalone="no"?>
<!DOCTYPE svg PUBLIC "-//W3C//DTD SVG 1.1//EN" "http://www.w3.org/Graphics/SVG/1.1/DTD/svg11.dtd">
<svg width="100%" height="100%" viewBox="0 0 3334 3334" version="1.1" xmlns="http://www.w3.org/2000/svg" xmlns:xlink="http://www.w3.org/1999/xlink" xml:space="preserve" xmlns:serif="http://www.serif.com/" style="fill-rule:evenodd;clip-rule:evenodd;stroke-linejoin:round;stroke-miterlimit:1.5;">
    <g transform="matrix(1,0,0,0.70339,-71.645,815.37)">
        <path d="M1373.39,469.815L1373.39,2691.2" style="fill:none;stroke:black;stroke-width:361.48px;"/>
    </g>
    <g transform="matrix(3.39508e-17,-1,1.03164,8.33562e-17,36.1536,2101.87)">
        <path d="M1373.39,469.815L1373.39,2691.2" style="fill:none;stroke:black;stroke-width:307.6px;stroke-linecap:square;"/>
    </g>
    <g transform="matrix(1,0,0,0.70339,658.191,815.37)">
        <path d="M1373.39,469.815L1373.39,2691.2" style="fill:none;stroke:black;stroke-width:361.48px;"/>
    </g>
    <g transform="matrix(0.963315,0,0,1.43624,-47.9819,394.791)">
        <path d="M2807.22,522.922L2807.22,1683.36C2807.22,1803.53 2661.98,1900.94 2482.82,1900.94L1077.08,1900.94C897.917,1900.94 752.677,1803.53 752.677,1683.36L752.677,522.922" style="fill:none;stroke:black;stroke-width:255.55px;"/>
    </g>
    <g transform="matrix(-0.963315,1.17972e-16,-1.75889e-16,-1.43624,2662.33,2949.76)">
        <path d="M1628.32,1553.92C1628.32,1813.79 1628.32,1389.9 1628.32,1691.17C1628.32,1811.34 1483.08,1908.75 1303.91,1908.75L763.247,1908.75C584.085,1908.75 438.846,1811.34 438.846,1691.17C438.846,1404.43 438.846,1812.48 438.846,1553.92" style="fill:none;stroke:black;stroke-width:255.55px;"/>
    </g>
</svg>
