<?xml version="1.0" standalone="no"?>
<!DOCTYPE svg PUBLIC "-//W3C//DTD SVG 20010904//EN"
        "http://www.w3.org/TR/2001/REC-SVG-20010904/DTD/svg10.dtd">
<svg version="1.0" xmlns="http://www.w3.org/2000/svg"
     width="1024.000000pt" height="1024.000000pt" viewBox="0 0 1024.000000 1024.000000"
     preserveAspectRatio="xMidYMid meet">

    <g transform="translate(0.000000,1024.000000) scale(0.100000,-0.100000)"
       fill="#003366" stroke="none">
        <path d="M4865 8945 c-481 -53 -937 -269 -1296 -613 -387 -371 -621 -849 -680
-1391 -14 -137 -7 -410 16 -556 85 -549 370 -1046 799 -1398 61 -49 116 -91
123 -94 24 -9 14 -20 -34 -38 -27 -10 -103 -44 -171 -76 -747 -353 -1362 -972
-1702 -1716 -118 -260 -200 -511 -220 -677 -6 -55 -16 -111 -22 -125 -11 -28
-21 -177 -37 -581 -6 -140 -13 -265 -16 -277 -4 -17 16 -39 108 -120 148 -130
202 -174 322 -264 134 -101 255 -182 262 -175 3 3 -2 63 -11 134 -9 71 -16
171 -16 221 0 51 -5 102 -11 113 -13 24 -30 279 -29 433 0 122 14 239 46 408
134 694 532 1325 1104 1753 388 290 820 469 1320 546 206 31 592 32 790 1 297
-47 560 -122 790 -227 947 -434 1587 -1331 1680 -2356 6 -69 15 -148 21 -175
5 -28 14 -113 19 -190 6 -77 17 -166 25 -198 10 -40 15 -109 15 -213 0 -85 3
-154 6 -154 23 0 356 268 522 419 l132 122 0 92 c0 60 -7 117 -20 162 -11 39
-20 81 -20 94 0 14 -6 52 -14 85 -8 34 -19 93 -26 131 -7 39 -21 93 -31 120
-11 28 -41 138 -69 245 -27 107 -69 254 -94 326 -262 765 -783 1419 -1470
1846 -151 94 -350 199 -483 254 -51 21 -93 41 -93 45 0 3 21 21 48 40 89 64
252 210 324 292 159 178 264 335 364 542 366 757 275 1638 -239 2324 -96 128
-297 329 -429 427 -468 349 -1025 502 -1603 439z m559 -655 c205 -41 410 -125
586 -241 132 -88 344 -300 433 -434 325 -492 364 -1091 105 -1609 -83 -166
-147 -255 -287 -400 -238 -245 -519 -395 -866 -463 -136 -26 -445 -24 -581 5
-662 141 -1149 639 -1270 1297 -26 140 -26 422 0 560 39 208 125 422 240 595
272 407 683 654 1186 714 83 10 358 -4 454 -24z"/>
    </g>
</svg>
